<?xml version="1.0" encoding="utf-8"?>
<!-- Generator: Adobe Illustrator 24.3.0, SVG Export Plug-In . SVG Version: 6.00 Build 0)  -->
<svg version="1.1" id="Layer_1" xmlns="http://www.w3.org/2000/svg" xmlns:xlink="http://www.w3.org/1999/xlink" x="0px" y="0px"
	 viewBox="0 0 469.4 109.5" style="enable-background:new 0 0 469.4 109.5;" xml:space="preserve">
<style type="text/css">
	.st0{fill:#FFFFFF;}
	.st1{fill:#00B451;}
</style>
<path class="st0" d="M453.6,19h-59.7C374.5,0.3,344,0.3,324.7,19H15.8C9.8,19,5,23.8,5,29.8l0,0v49.4C5,85.1,9.8,90,15.8,90
	c0,0,0,0,0,0h308.3c19.4,19.4,50.9,19.4,70.3,0h59.1c6,0,10.8-4.8,10.8-10.8V29.8C464.4,23.8,459.5,19,453.6,19z"/>
<path class="st0" d="M453.6,14h-57.8c-20.8-18.6-52.3-18.6-73,0H15.8C7.1,14,0,21,0,29.8v49.4C0,87.9,7.1,95,15.8,95h306.3
	c21,19.4,53.4,19.4,74.4,0h57.1c8.7,0,15.8-7.1,15.8-15.8V29.8C469.3,21,462.3,14,453.6,14z M464.4,79.2c0,6-4.8,10.8-10.8,10.8
	h-59.1c-19.4,19.4-50.9,19.4-70.3,0H15.8C9.8,90,5,85.1,5,79.2l0,0V29.8C5,23.8,9.8,19,15.8,19c0,0,0,0,0,0h308.9
	c19.3-18.6,49.8-18.6,69.1,0h59.7c6,0,10.8,4.8,10.8,10.8c0,0,0,0,0,0V79.2z"/>
<polygon class="st1" points="64.3,59.2 86.4,59.2 86.4,48.9 64.3,48.9 64.3,39.3 87.7,39.3 87.7,29 53.1,29 53.1,80 89,80 89,69.6 
	64.3,69.6 "/>
<path class="st1" d="M134.8,34.8c-2.9-2.1-6.1-3.6-9.6-4.4c-3.8-0.9-7.7-1.4-11.6-1.4H96.7v51h18.4c3.7,0,7.4-0.5,10.9-1.7
	c3.3-1,6.4-2.7,9.1-4.9c2.7-2.2,4.8-4.9,6.3-7.9c1.6-3.4,2.4-7.1,2.3-10.9c0.1-4.1-0.7-8.2-2.4-11.9
	C139.8,39.6,137.6,36.9,134.8,34.8z M130.7,61.3c-0.9,1.9-2.2,3.6-3.9,4.8c-1.7,1.3-3.7,2.2-5.8,2.6c-2.4,0.5-4.8,0.8-7.2,0.8H108
	V39.3h6.6c2.3,0,4.5,0.3,6.7,0.9c2,0.5,3.9,1.5,5.6,2.7c1.6,1.2,2.9,2.8,3.8,4.6c1,2,1.5,4.3,1.4,6.5
	C132.2,56.5,131.7,59,130.7,61.3z"/>
<polygon class="st1" points="178.7,62.2 178.5,62.2 166.8,29 149.8,29 149.8,80 161,80 161,40.9 161.2,40.9 174.1,80 182.6,80 
	196,40.9 196.2,40.9 196.2,80 207.4,80 207.4,29 190.5,29 "/>
<rect x="216.1" y="29" class="st1" width="11.2" height="51"/>
<path class="st1" d="M263.4,53.1c-1.8-1.1-3.7-1.9-5.7-2.4c-2-0.6-3.9-1.2-5.7-1.7c-1.5-0.5-3-1.2-4.4-2.1c-1.1-0.8-1.8-2.1-1.7-3.5
	c0-0.9,0.2-1.7,0.7-2.4c0.5-0.7,1.1-1.2,1.9-1.6c0.8-0.4,1.6-0.7,2.4-0.9c0.8-0.2,1.7-0.3,2.5-0.3c1.5,0,3,0.3,4.4,0.8
	c1.5,0.5,2.7,1.4,3.7,2.6l7.7-8.4c-2.1-1.9-4.6-3.3-7.3-4.1c-2.7-0.8-5.5-1.2-8.4-1.2c-2.5,0-4.9,0.3-7.3,1
	c-2.3,0.6-4.4,1.7-6.2,3.1c-1.8,1.4-3.3,3.2-4.3,5.2c-1.1,2.2-1.7,4.7-1.6,7.2c-0.1,2.4,0.5,4.8,1.8,6.8c1.1,1.7,2.7,3.1,4.4,4.2
	c1.8,1.1,3.7,1.9,5.8,2.5c2.1,0.6,4,1.2,5.8,1.9c1.6,0.5,3.1,1.3,4.4,2.3c1.2,0.8,1.8,2.2,1.8,3.6c0,0.8-0.2,1.7-0.7,2.4
	c-0.5,0.7-1.1,1.2-1.8,1.7c-0.8,0.4-1.6,0.8-2.5,1c-0.9,0.2-1.8,0.3-2.8,0.3c-1.9,0-3.7-0.4-5.4-1.3c-1.7-0.8-3.2-2-4.4-3.6l-8,8.8
	c2.3,2.2,5,3.8,7.9,4.9c5.4,1.8,11.2,2,16.7,0.5c2.3-0.6,4.4-1.7,6.3-3.1c1.8-1.4,3.3-3.2,4.3-5.3c1.1-2.3,1.6-4.9,1.6-7.4
	c0.1-2.5-0.5-5-1.7-7.1C266.6,55.6,265.1,54.2,263.4,53.1z"/>
<polygon class="st1" points="273.6,38.9 288.1,38.9 288.1,80 299.3,80 299.3,38.9 313.9,38.9 313.9,29 273.6,29 "/>
<polygon class="st1" points="443.1,64.4 443,64.4 421.3,29 406,29 406,80 417.3,80 417.3,43.7 417.4,43.7 439.7,80 454.3,80 
	454.3,29 443.1,29 "/>
<path class="st1" d="M34.7,78c0.5-0.3,0.9-0.7,1.2-1.1c0.3-0.4,0.6-0.9,0.8-1.3c0.2-0.5,0.4-0.9,0.5-1.4c0.1-0.5,0.1-0.9,0.1-1.4
	c0-1-0.2-2-0.5-2.9c-0.3-0.9-0.8-1.6-1.5-2.3c-0.6-0.6-1.4-1.2-2.3-1.5c-1.8-0.7-3.9-0.7-5.7,0c-1.7,0.7-3.1,2.1-3.8,3.8
	c-0.4,0.9-0.5,1.9-0.5,2.9c0,0.5,0.1,0.9,0.1,1.4c0.1,0.5,0.3,1,0.5,1.4c0.2,0.5,0.5,0.9,0.8,1.3c0.3,0.4,0.7,0.8,1.2,1.1V78h-2.3
	V80h22V78L34.7,78L34.7,78z M32.3,77.7c-1.4,0.5-2.9,0.5-4.2,0c-0.6-0.3-1.2-0.6-1.7-1.1c-0.5-0.5-0.9-1.1-1.2-1.7
	c-0.3-0.7-0.4-1.4-0.4-2.2c0-0.7,0.1-1.5,0.4-2.1c0.3-0.6,0.7-1.2,1.2-1.6c0.5-0.5,1.1-0.8,1.7-1c1.4-0.5,2.9-0.5,4.2,0
	c0.6,0.2,1.2,0.6,1.7,1c0.5,0.5,0.9,1,1.1,1.6c0.3,0.7,0.4,1.4,0.4,2.1c0,0.7-0.1,1.5-0.4,2.2c-0.3,0.6-0.7,1.2-1.1,1.7
	C33.6,77.1,33,77.5,32.3,77.7z"/>
<path class="st1" d="M28.8,57.1c0.1,0.9,0.3,1.9,0.6,2.8c0.3,0.8,0.8,1.6,1.4,2.2c0.7,0.6,1.7,0.9,2.6,0.9c0.6,0,1.2-0.1,1.7-0.4
	c0.5-0.3,0.9-0.6,1.3-1c0.3-0.4,0.6-1,0.8-1.5c0.2-0.6,0.2-1.2,0.2-1.7c0-1-0.2-1.9-0.6-2.8c-0.5-0.8-1.1-1.5-2-2v-0.1
	c0.4,0,0.7,0,1.1,0c0.4,0,0.7-0.1,1.1-0.1v-1.9c-0.4,0.1-0.8,0.1-1.4,0.2c-0.6,0-1.1,0.1-1.6,0.1h-6.1c-0.7,0-1.5,0.1-2.2,0.4
	c-0.6,0.2-1.1,0.6-1.5,1.1c-0.4,0.5-0.7,1-0.9,1.6c-0.2,0.6-0.3,1.3-0.3,1.9c0,2.6,0.7,4.5,2,5.8l1.4-1.2c-1-1.1-1.6-2.6-1.6-4.2
	c0-2.3,1.2-3.5,3.5-3.5h0.3v1C28.7,55.2,28.7,56.1,28.8,57.1z M30.2,53.4h1c0.6,0,1.2,0.1,1.7,0.2c1,0.3,1.9,1.1,2.3,2.1
	c0.2,0.6,0.4,1.2,0.3,1.8c0,0.4,0,0.8-0.1,1.1c-0.1,0.4-0.2,0.7-0.4,1c-0.2,0.3-0.5,0.6-0.8,0.7c-0.4,0.2-0.7,0.3-1.2,0.3
	c-0.6,0-1.2-0.2-1.6-0.7c-0.4-0.5-0.7-1.1-0.9-1.7c-0.2-0.7-0.3-1.4-0.3-2.1c0-0.7-0.1-1.3-0.1-1.8L30.2,53.4z"/>
<path class="st1" d="M35.8,38.4c-0.3-0.3-0.6-0.6-1-0.8v-0.1c0.4,0,0.7,0,1.1,0c0.4,0,0.7,0,1.1-0.1v-2c-0.5,0-1,0.1-1.6,0.1
	c-0.6,0-1,0-1.4,0H23.4v1.9h7c1-0.1,2,0.1,2.9,0.6c0.6,0.3,1.2,0.8,1.6,1.3c0.3,0.4,0.5,0.9,0.6,1.4c0.1,0.3,0.1,0.5,0.1,0.8
	c0,0.6-0.1,1.2-0.3,1.8c-0.2,0.5-0.5,0.8-0.9,1.1c-0.4,0.3-0.9,0.5-1.5,0.6c-0.7,0.1-1.3,0.2-2,0.2h-7.5v1.9H32
	c1.4,0.1,2.8-0.4,3.9-1.3c1-1,1.5-2.4,1.4-3.9c0-0.5-0.1-0.9-0.2-1.4c-0.1-0.5-0.3-0.9-0.5-1.3C36.4,39.1,36.2,38.7,35.8,38.4z"/>
<rect x="15" y="29" class="st1" width="22" height="1.9"/>
<path class="st1" d="M359.4,14.8c-22,0-39.9,17.8-39.9,39.9c0,22,17.8,39.9,39.9,39.9s39.9-17.8,39.9-39.9c0,0,0,0,0,0
	C399.3,32.6,381.4,14.8,359.4,14.8z M379.4,32.2c2.3,3,2.6,7.6,2.3,11.5c0-0.3,0-0.6-0.1-0.9c-0.2-2.8-0.9-5.4-2.1-7.9
	c-0.6-1.3-1.5-2.4-2.4-3.4c-0.7-0.7-1.4-1.3-2.1-1.8C376,29.4,377.6,29.9,379.4,32.2L379.4,32.2z M337.1,32.6c6,4,11.8-7.6,26.2-7.6
	c10.3,0,11.2,2.4,10.8,4c-0.1-0.1-0.2-0.1-0.3-0.2c-1.2-0.7-2.5-1.2-3.9-1.6c-1.3-0.3-2.7-0.6-4.1-0.7c-0.3,0-0.7,0-1-0.1
	c-0.3,0-0.7,0-1,0c-0.7,0-1.4,0-2.1,0.1c-1.4,0.1-2.8,0.4-4.2,0.9c-1.4,0.5-2.6,1.3-3.7,2.2c-1.1,0.9-2,2-2.8,3.2
	c-0.8,1.1-1.5,2.3-2.2,3.4c-0.7,1.1-1.3,2.3-2,3.4c-1.3,2.2-2.8,4.2-4.6,6l-1.7,1.7l2.3,0.8l0,0c0.2,0,0.3,0.1,0.4,0.1l0.4,0.1
	c0.2,0.1,0.5,0.1,0.7,0.1c0.5,0.1,1,0.2,1.5,0.2c1,0.1,2,0.2,3,0.3c2,0.1,3.9,0,5.9-0.2c1.9-0.2,3.8-0.7,5.7-1.4
	c1.8-0.7,3.5-1.5,5.1-2.6c-1.7,0.9-3.5,1.5-5.3,1.9c-1.8,0.4-3.7,0.6-5.6,0.6c-1.9,0-3.7-0.2-5.5-0.5c-0.9-0.2-1.8-0.4-2.7-0.6
	c-0.2,0-0.3-0.1-0.5-0.1c1.2-1.5,2.3-3.2,3.3-4.9c1.3-2.3,2.5-4.7,3.9-6.8c0.7-1,1.5-2,2.4-2.8c0.9-0.8,1.9-1.5,3-2
	c1.1-0.5,2.3-0.8,3.6-0.9c0.6-0.1,1.3-0.1,1.9-0.1c0.3,0,0.6,0,1,0c0.3,0,0.6,0,1,0c1.3,0,2.5,0.2,3.8,0.5c1.2,0.3,2.4,0.7,3.6,1.3
	c0.1,0.1,0.2,0.1,0.3,0.2l0,0l0,0c1,0.6,1.9,1.2,2.8,2.1c0.9,0.9,1.7,1.9,2.3,3c1.2,2.3,2,4.8,2.2,7.4c0.1,1.3,0.2,2.6,0.1,3.9
	c0,1.3-0.2,2.6-0.4,3.9h-42.2c-5.1-12,5-14,5-14S337.1,36.6,337.1,32.6L337.1,32.6z M383.3,59.6c-0.2,3.6-1.9,6.5-3.7,6.4l0,0
	c0.1,2,0.4,4.4,0.6,6c0.1,1.2-0.5,2.3-1.5,2.9l-18.1,9c-0.8,0.4-1.7,0.4-2.5,0l-18.1-9c-1.1-0.5-1.7-1.7-1.5-2.9
	c0.2-1.6,0.5-3.9,0.6-6l0,0c-1.8,0.1-3.5-2.7-3.7-6.4s1-6.7,2.9-6.8c0.1,0,0.1,0,0.2,0h0.1c0,0,4.8,0,5,12.5c0,0.4,0.3,0.7,0.7,0.7
	H356c0.4,0,0.7-0.3,0.7-0.7c0.1-1.9,0.5-7.2,2.6-7.2s2.6,5.3,2.6,7.2c0,0.4,0.3,0.7,0.7,0.7h11.8c0.4,0,0.7-0.3,0.7-0.7
	c0.2-12.5,5-12.5,5-12.5h0.1c0.1,0,0.1,0,0.2,0C382.2,53,383.5,56,383.3,59.6L383.3,59.6z"/>
</svg>
