<?xml version="1.0" encoding="utf-8"?>
<!-- Generator: Adobe Illustrator 24.3.0, SVG Export Plug-In . SVG Version: 6.00 Build 0)  -->
<svg version="1.1" id="Layer_1" xmlns="http://www.w3.org/2000/svg" xmlns:xlink="http://www.w3.org/1999/xlink" x="0px" y="0px"
	 viewBox="0 0 245.6 302.7" style="enable-background:new 0 0 245.6 302.7;" xml:space="preserve">
<style type="text/css">
	.st0{fill:#FFFFFF;}
</style>
<path class="st0" d="M230.8,142.4c-0.3,0-0.7,0-1,0h-0.4c0,0-24.7,0-25.6,63.9c0,2-1.6,3.6-3.6,3.6h-60.4c-1.9,0-3.5-1.5-3.6-3.5
	c-0.4-9.8-2.4-37-13.4-37s-13.1,27.2-13.4,37c-0.1,1.9-1.7,3.5-3.6,3.5H45.4c-2,0-3.6-1.6-3.6-3.6c-0.9-63.9-25.6-63.9-25.6-63.9
	h-0.4c-0.3,0-0.7,0-1,0C5.5,143-1.1,158.5,0.1,177.1s9.7,33.2,19,32.6l0,0c-0.8,10.5-2.1,22.3-3.1,30.5c-0.7,6.1,2.4,12,7.9,14.7
	l92.3,46.2c4.1,2,8.8,2,12.9,0l92.3-46.2c5.5-2.7,8.7-8.6,7.9-14.7c-1-8.2-2.4-20-3.1-30.5l0,0c9.3,0.6,17.8-14,19-32.6
	S240.1,143,230.8,142.4z"/>
<path class="st0" d="M214,32.6c4.9,5.2,9.1,11.2,12.4,17.6c6.5,12.8,9.5,26.8,10.6,40.6c0.1,1.6,0.2,3.2,0.3,4.7
	c1.7-19.7,0.4-43.2-11.6-58.8c-9.2-12-17.1-14.2-22.6-13.6C207,25.9,210.6,29,214,32.6z"/>
<path class="st0" d="M232.6,111.3c0.2-6.7-0.1-13.4-0.8-20.1c-1.4-13.3-4.8-26.4-11.2-38c-3.2-5.7-7.1-11-11.8-15.6
	c-4.2-4.1-9-7.7-14.2-10.5c-0.1,0.1-0.2,0.2-0.2,0.2s0-0.1,0.1-0.2c-0.5-0.3-1-0.5-1.5-0.8c-5.8-3-11.9-5.2-18.3-6.6
	c-6.4-1.4-12.9-2.3-19.4-2.5c-1.6-0.1-3.3-0.1-4.9-0.1c-1.6,0-3.3,0-4.9,0.1c-3.2,0.1-6.5,0.3-9.7,0.7c-6.3,0.7-12.5,2.3-18.3,4.8
	c-5.7,2.5-10.9,5.9-15.5,10.1c-4.6,4.4-8.6,9.3-12.1,14.6C83,57.9,77.1,70.1,70.3,82c-4.9,8.8-10.6,17.3-16.9,25.2
	c0.8,0.2,1.6,0.4,2.4,0.7c4.5,1.2,9.2,2.2,13.8,3c9.4,1.7,18.8,2.5,28.3,2.5c9.6,0,19.1-1,28.5-3.1c9.5-2.1,18.7-5.4,27.3-9.8
	c-8.2,5.6-17,10.1-26.3,13.4c-9.4,3.4-19.1,5.7-29,7c-10,1.3-20,1.7-30.1,1.2c-5-0.2-10.1-0.7-15.1-1.3c-2.5-0.3-5-0.7-7.6-1.2
	c-1.3-0.2-2.5-0.5-3.8-0.7l-1.9-0.4c-0.7-0.2-1.2-0.3-2-0.5l0,0L26.3,114l8.7-8.5c9.1-8.8,16.7-19.3,23.6-30.5
	c3.5-5.6,6.8-11.4,10.3-17.2C72.4,51.9,76,46,80.2,40.2c4.2-5.9,9-11.4,14.4-16.2c5.6-4.9,12.1-8.8,19-11.5c6.8-2.6,14-4.2,21.3-4.8
	c3.5-0.3,7.1-0.4,10.6-0.4c1.7,0,3.5,0,5.2,0.1c1.8,0.1,3.5,0.1,5.3,0.3c7.1,0.5,14.1,1.7,20.9,3.5c6,1.6,11.9,3.8,17.4,6.7
	c-2.7-7.9-13.4-18-50.9-18C69.8,0,40.4,59.4,9.5,38.8c0,20.5,30.8,20.6,30.8,20.6s-51.4,10.3-25.5,72h215.8
	C231.8,124.7,232.4,118,232.6,111.3z"/>
</svg>
